<?xml version="1.0" standalone="no"?>
<!DOCTYPE svg PUBLIC "-//W3C//DTD SVG 20010904//EN"
 "http://www.w3.org/TR/2001/REC-SVG-20010904/DTD/svg10.dtd">
<svg version="1.0" xmlns="http://www.w3.org/2000/svg"
 width="512.000000pt" height="512.000000pt" viewBox="0 0 512.000000 512.000000"
 preserveAspectRatio="xMidYMid meet">
<metadata>
Created by potrace 1.11, written by Peter Selinger 2001-2013
</metadata>
<g transform="translate(0.000000,512.000000) scale(0.100000,-0.100000)"
fill="#000000" stroke="none">
<path d="M1260 4533 c-8 -3 -23 -12 -32 -21 -17 -14 -18 -120 -18 -1952 0
-1832 1 -1938 18 -1953 40 -36 66 -32 159 25 48 29 96 58 105 63 10 6 111 66
225 135 115 69 216 129 225 135 10 5 111 66 225 135 115 69 216 129 225 135 9
5 79 47 155 93 76 46 145 87 153 92 8 6 49 30 90 54 41 25 137 82 213 128 76
46 148 89 160 95 12 7 323 194 691 415 705 424 696 418 675 475 -4 12 -49 45
-106 79 -86 50 -1359 814 -1813 1087 -91 55 -177 107 -192 116 -63 37 -414
248 -447 268 -20 12 -54 33 -76 46 -207 123 -473 282 -527 316 -67 41 -79 45
-108 34z"/>
</g>
</svg>
